<svg width="32" height="32" viewBox="0 0 32 32" fill="none" xmlns="http://www.w3.org/2000/svg">
<path d="M20.5 10L21.2814 10.0916L24.063 7.30995L24.1996 6.12899C22.6062 4.72253 20.6804 3.74551 18.6044 3.29022C16.5283 2.83493 14.3704 2.91642 12.3346 3.52697C10.2988 4.13752 8.45224 5.25698 6.96936 6.77961C5.48648 8.30223 3.5565 10.9487 3 13C3.30988 12.873 4.5129 12.0814 4.83574 12.1704L10.399 11.253C10.399 11.253 10.682 10.7845 10.8284 10.8138C12.0204 9.50466 13.6678 8.70066 15.4332 8.56639C17.1986 8.43212 19.1237 8.88618 20.5 10Z" fill="#EA4335"/>
<path d="M28 12C27.3606 9.64552 26.0735 7.75805 24.2485 6.13892L20.5 10C21.3136 10.6648 21.8102 11.5486 22.2514 12.5022C22.6927 13.4558 22.9117 14.4971 22.8919 15.5476V16.2405C23.3481 16.2405 23.8 16.3304 24.2215 16.505C24.6431 16.6796 25.0261 16.9356 25.3488 17.2582C25.6714 17.5809 25.9273 17.9639 26.1019 18.3855C26.2766 18.807 26.3664 19.2588 26.3664 19.7151C26.3664 20.1714 26.2766 20.6232 26.1019 21.0448C25.9273 21.4663 25.6714 21.8494 25.3488 22.172C25.0261 22.4946 24.6431 22.7506 24.2215 22.9252C24 23 23.4563 23 23 23H16L15.2498 23.8924V28.0599L16 29H23C24.9405 29.0151 26.7262 28.1581 28.2933 27.0134C29.8603 25.8688 31.0173 24.2501 31.593 22.3969C32.1688 20.5437 32.1328 18.5544 31.4903 16.7233C30.8479 14.8921 29.6074 13.0872 28 12Z" fill="#4285F4"/>
<path d="M8.98381 29H16V23H9C8.50491 22.9999 7.99943 23.044 7.54909 22.8383L6.57308 23.1408L3.77195 25.9224L3.52795 26.8984C5.09876 28.0846 7.01548 29.0085 8.98381 29Z" fill="#34A853"/>
<path d="M8.9838 10.6675C7.10092 10.6788 5.26856 11.2778 3.74266 12.381C2.21676 13.4842 1.07351 15.0364 0.472601 16.8209C-0.128309 18.6053 -0.156876 20.5329 0.390891 22.3344C0.938658 24.1359 2.0354 25.7213 3.52794 26.8692L7.55884 22.8383C7.04659 22.6069 6.59815 22.2546 6.25197 21.8118C5.90579 21.3689 5.67222 20.8487 5.5713 20.2957C5.47038 19.7428 5.50512 19.1736 5.67253 18.637C5.83995 18.1004 6.13505 17.6125 6.53251 17.215C6.92998 16.8175 7.41793 16.5224 7.95452 16.355C8.4911 16.1876 9.06029 16.1529 9.61325 16.2538C10.1662 16.3547 10.6864 16.5883 11.1293 16.9345C11.5721 17.2806 11.9244 17.7291 12.1558 18.2413L16.1867 14.2104C15.3407 13.1044 14.2502 12.209 13.0007 11.5944C11.7511 10.9798 10.3763 10.6626 8.9838 10.6675Z" fill="#FBBC05"/>
</svg>
